<svg width="100" height="45" viewBox="0 0 100 45" fill="none" xmlns="http://www.w3.org/2000/svg">
<path d="M26.114 0.976548C29.2411 2.01437 31.7725 3.91745 33.7094 6.68454C35.2624 8.92398 36.3213 11.3447 36.886 13.9505C37.4508 16.5563 37.7331 19.0383 37.7331 21.399C37.7331 27.3821 36.543 32.4499 34.1627 36.6012C30.9353 42.1979 25.9517 44.9962 19.2146 44.9962H0V0H19.2158C21.9788 0.0412626 24.2786 0.366362 26.114 0.976548ZM9.0407 7.81489V37.1814H17.6417C22.0432 37.1814 25.1108 34.9944 26.8472 30.6181C27.7958 28.2174 28.2701 25.3577 28.2701 22.0405C28.2701 17.4616 27.558 13.9455 26.135 11.4935C24.7121 9.04151 21.881 7.81489 17.6405 7.81489H9.0407Z" fill="black"/>
<path d="M53.7474 0H64.2841L80.0521 44.9962H69.9537L67.0124 35.7472H50.6005L47.5799 44.9962H37.8383L53.7474 0ZM53.1331 27.9936H64.5467L58.9167 10.2881L53.1331 27.9936Z" fill="black"/>
<path d="M84.1452 0.00488281L99.9986 44.9999H89.7355L73.9478 0.00488281H84.1452Z" fill="black"/>
</svg>
