<?xml version="1.0" standalone="no"?>
<!DOCTYPE svg PUBLIC "-//W3C//DTD SVG 20010904//EN"
 "http://www.w3.org/TR/2001/REC-SVG-20010904/DTD/svg10.dtd">
<svg version="1.0" xmlns="http://www.w3.org/2000/svg"
 width="256.000000pt" height="256.000000pt" viewBox="0 0 256.000000 256.000000"
 preserveAspectRatio="xMidYMid meet">
<metadata>
Created by potrace 1.11, written by Peter Selinger 2001-2013
</metadata>
<g transform="translate(0.000000,256.000000) scale(0.100000,-0.100000)"
fill="#000000" stroke="none">
<path d="M270 1281 l0 -461 228 0 c256 0 301 8 374 63 86 65 139 175 160 328
14 104 1 222 -33 315 -27 72 -103 155 -171 185 -51 23 -64 24 -305 27 l-253 3
0 -460z m467 280 c73 -33 104 -110 105 -261 1 -112 -18 -187 -61 -247 -42 -58
-87 -73 -221 -73 l-110 0 0 300 0 300 123 0 c98 0 130 -4 164 -19z"/>
<path d="M1246 1402 c-66 -185 -139 -392 -163 -460 l-43 -123 102 3 102 3 30
93 30 92 166 -2 165 -3 30 -92 30 -93 103 0 c83 0 103 3 100 14 -2 7 -73 214
-158 460 l-155 446 -110 0 -110 0 -119 -338z m334 -219 c0 -10 -29 -13 -110
-13 -60 0 -110 3 -110 7 0 5 26 84 57 178 l57 170 53 -165 c29 -91 53 -171 53
-177z"/>
<path d="M1839 1573 c32 -92 105 -300 161 -460 l103 -293 103 0 c57 0 104 3
103 8 0 4 -71 210 -158 457 l-158 450 -106 3 -107 3 59 -168z"/>
</g>
</svg>
